<svg xmlns="http://www.w3.org/2000/svg" xmlns:xlink="http://www.w3.org/1999/xlink" width="541.044" height="674.538" viewBox="0 0 541.044 674.538">
  <defs>
    <clipPath id="clip-path">
      <rect width="541.044" height="674.538" fill="none"/>
    </clipPath>
  </defs>
  <g id="undraw_Mobile_life_re_jtih" clip-path="url(#clip-path)">
    <g id="undraw_Mobile_life_re_jtih-2" data-name="undraw_Mobile_life_re_jtih" transform="translate(-305.534 -8.045)">
      <rect id="Rectangle_105" data-name="Rectangle 105" width="526" height="2" transform="translate(320.578 680.583)" fill="#3f3d56"/>
      <path id="Path_1540" data-name="Path 1540" d="M819.635,269.7h-2.27V155.743a38.99,38.99,0,0,0-38.99-38.99H524.585a38.99,38.99,0,0,0-38.99,38.99v49.93h-.86a2.29,2.29,0,0,0-2.29,2.29v22.33a2.29,2.29,0,0,0,2.29,2.29h.86v22.35h-1.06a2.29,2.29,0,0,0-2.29,2.29v42.259a2.29,2.29,0,0,0,2.29,2.29h1.06v16.39h-.96a2.29,2.29,0,0,0-2.29,2.29v42.66a2.29,2.29,0,0,0,2.29,2.29h.96v386.63a38.99,38.99,0,0,0,38.99,38.99h253.79a38.99,38.99,0,0,0,38.99-38.99v-400.6h2.27a2.29,2.29,0,0,0,2.29-2.29v-77.15a2.29,2.29,0,0,0-2.29-2.29Z" transform="translate(-176.711 -108.708)" fill="#3f3d56"/>
      <path id="Path_1541" data-name="Path 1541" d="M661.935,146.793h-38.59a4.375,4.375,0,0,1-4.37-4.369v-1.671a4.375,4.375,0,0,1,4.37-4.369h38.59a4.375,4.375,0,0,1,4.37,4.369v1.671A4.374,4.374,0,0,1,661.935,146.793Z" transform="translate(-176.711 -108.708)" fill="#fff"/>
      <circle id="Ellipse_99" data-name="Ellipse 99" cx="5.34" cy="5.34" r="5.34" transform="translate(496.094 27.545)" fill="#fff"/>
      <path id="Path_1542" data-name="Path 1542" d="M770.525,134.313h-38v4.57a21.7,21.7,0,0,1-21.7,21.7H589.765a21.69,21.69,0,0,1-21.7-21.68v-4.59h-35.63a26.35,26.35,0,0,0-26.35,26.35h0V747.1a26.35,26.35,0,0,0,26.35,26.35h238.09a26.34,26.34,0,0,0,26.34-26.34V160.663a26.34,26.34,0,0,0-26.33-26.35Z" transform="translate(-176.711 -108.708)" fill="#fff"/>
      <path id="Path_1543" data-name="Path 1543" d="M702.476,702.292h-102a27.5,27.5,0,0,1,0-55h102a27.5,27.5,0,1,1,0,55Z" transform="translate(-176.711 -108.708)" fill="#e07c46"/>
      <path id="Path_1544" data-name="Path 1544" d="M742.476,476.4h-182a9.5,9.5,0,0,1,0-19h182a9.5,9.5,0,0,1,0,19Z" transform="translate(-176.711 -108.708)" fill="#e6e6e6"/>
      <path id="Path_1545" data-name="Path 1545" d="M742.476,504.4h-182a9.5,9.5,0,0,1,0-19h182a9.5,9.5,0,0,1,0,19Z" transform="translate(-176.711 -108.708)" fill="#e6e6e6"/>
      <path id="Path_1546" data-name="Path 1546" d="M742.476,532.4h-182a9.5,9.5,0,0,1,0-19h182a9.5,9.5,0,0,1,0,19Z" transform="translate(-176.711 -108.708)" fill="#e6e6e6"/>
      <path id="Path_1547" data-name="Path 1547" d="M742.476,560.4h-182a9.5,9.5,0,0,1,0-19h182a9.5,9.5,0,0,1,0,19Z" transform="translate(-176.711 -108.708)" fill="#e6e6e6"/>
      <path id="Path_1548" data-name="Path 1548" d="M618.476,588.4h-58a9.5,9.5,0,0,1,0-19h58a9.5,9.5,0,1,1,0,19Z" transform="translate(-176.711 -108.708)" fill="#e6e6e6"/>
      <path id="Path_1549" data-name="Path 1549" d="M770.961,398.552H531.989a7.977,7.977,0,0,1-7.968-7.968V213.222a7.977,7.977,0,0,1,7.968-7.968H770.961a7.977,7.977,0,0,1,7.968,7.968V390.584a7.977,7.977,0,0,1-7.968,7.968Z" transform="translate(-176.711 -108.708)" fill="#e6e6e6"/>
      <g id="Group_1542" data-name="Group 1542" opacity="0.1">
        <path id="Path_1550" data-name="Path 1550" d="M813.289,347.923q0-2.06,0-4.14a31.249,31.249,0,0,0,0,3.21C813.279,347.3,813.289,347.613,813.289,347.923Z" transform="translate(-176.711 -108.708)"/>
      </g>
      <circle id="Ellipse_100" data-name="Ellipse 100" cx="26.239" cy="26.239" r="26.239" transform="translate(650.203 265.371)" fill="#ffb8b8"/>
      <path id="Path_1551" data-name="Path 1551" d="M921.4,613.084a9.5,9.5,0,0,0-.645-14.549l-3.578-31.78-19.925,5.439,9.7,28.6A9.549,9.549,0,0,0,921.4,613.084Z" transform="translate(-176.711 -108.708)" fill="#ffb8b8"/>
      <path id="Path_1552" data-name="Path 1552" d="M759.242,665.281l11-7.113-22.2-45.8-16.231,10.5Z" fill="#ffb8b8"/>
      <path id="Path_1553" data-name="Path 1553" d="M932.583,759.919h41.163v15.9H947.893a15.309,15.309,0,0,1-15.31-15.311v-.594Z" transform="translate(1993.828 786.234) rotate(147.104)" fill="#2f2e41"/>
      <path id="Path_1554" data-name="Path 1554" d="M661.851,669.936h13.1l6.233-50.518h-19.33Z" fill="#ffb8b8"/>
      <path id="Path_1555" data-name="Path 1555" d="M835.755,774.9h41.163v15.9H851.065A15.309,15.309,0,0,1,835.756,775.5V774.9Z" transform="translate(1535.963 1456.999) rotate(180)" fill="#2f2e41"/>
      <path id="Path_1556" data-name="Path 1556" d="M891.127,452.418c-1.742,5.671,4.432,11.845,6.425,17.419s4.675,10.938,5.752,16.771c.737,4.01,17.445,92.6,16.641,97.994a20.79,20.79,0,0,0-15.459,1.418,45.947,45.947,0,0,1-5.874-19.113,99.964,99.964,0,0,1,.113-11.967c.519-11.27-4.367-22.556-4.529-33.834a63.745,63.745,0,0,0-.924-11.667c-.535-2.649-.486-7.608-1.061-10.249-.916-4.2,3.022-6.133,2.8-10.435l-1.2-23.5C893.566,461.144,889.434,456.1,891.127,452.418Z" transform="translate(-176.711 -108.708)" fill="#2f2e41"/>
      <path id="Path_1557" data-name="Path 1557" d="M831.888,551c-4.211,6.569-13.076,7.991-19.277,12.7-9.475,7.233,14.7,169.73,22.677,198.6,21.056-3.158,21.793-3.148,24.214-4.211s4.611-83.6,9.728-100.614c9.575,9.024,39.711,86.58,46.07,103.772,25.267-6.317,0,0,32.636-8.422-.274-5.959-48.228-200.124-49.976-215.421C876.021,541.765,853.766,546.639,831.888,551Z" transform="translate(-176.711 -108.708)" fill="#2f2e41"/>
      <path id="Path_1558" data-name="Path 1558" d="M829.049,428.979c-2.6,7.7.94,37.682,1.2,44.423a151.142,151.142,0,0,1,0,18.375c-.9,10.6-4.051,21.268-1.936,31.687,1.385,6.895,3.848,13.3,4.424,20.32.389,4.861.267,9.8,1.807,14.414,5.671-2.431,55.953-10.786,59.647-15.645-2.528-12.21-.081-24.817-1.758-37.172-.972-7.122-3.379-13.976-4.513-21.065-1.4-8.75-.81-17.824-3.362-26.323a75.779,75.779,0,0,0-5.372-12.453c-2.2-4.529-4.953-8.249-5.9-8.248C870.9,437.421,829.2,428.292,829.049,428.979Z" transform="translate(-176.711 -108.708)" fill="#e07c46"/>
      <path id="Path_1559" data-name="Path 1559" d="M819.424,612.425s8.718-17.4,9.155-27.344c.154-3.573,9.941-17.792,14.349-21.017,10.452-7.656,18.157-58.975,14.624-71.427-6.109-21.527-16.4-41.6-26.842-61.381a4.472,4.472,0,0,0-1.458-1.855c-2.123-1.321-4.424,1.28-5.874,3.314-4.918,6.895-13.02,10.581-20.441,14.657s-15.013,9.5-17.257,17.662c-1.507,5.477-.332,11.286.81,16.836s5.137,9.957,8.159,14.632c3.5,5.159,12.6,28.04,12.534,30.755.178,16.787.348,33.632-1.685,50.305-1.142,9.423-2.147,28.357-2.147,28.357Z" transform="translate(-176.711 -108.708)" fill="#2f2e41"/>
      <path id="Path_1560" data-name="Path 1560" d="M898.6,594.438c-16.05-36.532-15.151-78.1-25.351-116.669-3.03-11.448-7.081-22.953-6.352-34.774.13-2.115.575-4.489,2.341-5.671,1.572-1.053,3.711-.77,5.436,0s3.2,2.026,4.861,2.884c2.682,1.369,5.8,1.758,8.378,3.306,3.824,2.3,5.777,6.676,7.486,10.792,3.654,8.791,7.292,17.824,7.583,27.352.616,18.505-7.592,36.289-3.314,54.284a107.77,107.77,0,0,0,3.306,10.484A318.748,318.748,0,0,1,913.5,584.351C913.983,586.547,899.27,595.978,898.6,594.438Z" transform="translate(-176.711 -108.708)" fill="#2f2e41"/>
      <path id="Path_1561" data-name="Path 1561" d="M847.644,585.794a9.5,9.5,0,0,0-9.586-10.963l-22.634-22.594-12.17,16.687,25.435,16.289a9.549,9.549,0,0,0,18.956.58Z" transform="translate(-176.711 -108.708)" fill="#ffb8b8"/>
      <path id="Path_1562" data-name="Path 1562" d="M775.527,534.483c.373,3.395,28.888,39.2,44.383,50.881-.9-4.61,11.246-19.647,15.175-22-9.82-9.263-30.336-30.748-31.015-31.922-2.22-4.286,0-9.406,1.936-13.838,6.1-14.089,8.977-30.075,5.064-44.926-1.475-5.574-4.051-11.156-8.742-14.584-2.05-1.491-4.821-2.512-7.1-1.377A7.883,7.883,0,0,0,792.8,458.9C785.533,467.739,775.252,531.964,775.527,534.483Z" transform="translate(-176.711 -108.708)" fill="#2f2e41"/>
      <path id="Path_1563" data-name="Path 1563" d="M841.969,423.278c1.532-6.5-6.212-20.487-4.68-26.987,1.037-4.4,11.389-1.41,13.8-5.233s6.462-6.921,10.984-6.972c5.2-.058,10.313,3.8,15.237,2.131,4.979-1.685,6.57-8.5,4.369-13.276s-6.943-7.814-11.628-10.2c-7.978-4.058-17.266-7.022-25.8-4.337-5.161,1.623-9.477,5.14-13.653,8.58-3.807,3.136-7.678,6.342-10.339,10.495-5.213,8.135-4.9,19.1-.444,27.669s12.573,14.865,21.519,18.517" transform="translate(-176.711 -108.708)" fill="#2f2e41"/>
    </g>
  </g>
</svg>
